<?xml version="1.0" encoding="utf-8"?>
<!-- Generator: Adobe Illustrator 25.0.1, SVG Export Plug-In . SVG Version: 6.00 Build 0)  -->
<svg version="1.1" id="Layer_1" xmlns="http://www.w3.org/2000/svg" xmlns:xlink="http://www.w3.org/1999/xlink" x="0px" y="0px"
	 viewBox="0 0 213.35 64.85" style="enable-background:new 0 0 213.35 64.85;" xml:space="preserve">
<style type="text/css">
	.st0{fill:#20415D;}
	.st1{fill:#25C3BF;}
	.st2{fill:#FFCD00;}
	.st3{fill:#FFBC00;}
	.st4{fill:#A3D100;}
</style>
<g>
	<g>
		<path class="st0" d="M13.5,26.3c-1.14,0-2.09,0.26-2.86,0.78c-0.77,0.52-1.4,1.19-1.88,2.01c-0.49,0.82-0.83,1.72-1.03,2.71
			c-0.2,0.99-0.3,1.96-0.3,2.93c0,0.94,0.1,1.89,0.3,2.86c0.2,0.97,0.53,1.85,0.98,2.63c0.45,0.79,1.06,1.43,1.83,1.93
			c0.77,0.5,1.71,0.75,2.81,0.75c1.71,0,3.02-0.48,3.94-1.43c0.92-0.95,1.5-2.23,1.73-3.84h6.87c-0.47,3.44-1.81,6.07-4.01,7.87
			c-2.21,1.81-5.03,2.71-8.48,2.71c-1.94,0-3.72-0.33-5.34-0.98c-1.62-0.65-3-1.56-4.14-2.73c-1.14-1.17-2.02-2.57-2.66-4.19
			c-0.64-1.62-0.95-3.4-0.95-5.34c0-2.01,0.29-3.87,0.88-5.59c0.58-1.72,1.45-3.21,2.58-4.46c1.14-1.25,2.52-2.23,4.16-2.93
			c1.64-0.7,3.51-1.05,5.62-1.05c1.54,0,3.02,0.2,4.44,0.6c1.42,0.4,2.69,1.01,3.81,1.83c1.12,0.82,2.03,1.84,2.73,3.06
			c0.7,1.22,1.1,2.67,1.2,4.34h-6.97C18.29,27.79,16.54,26.3,13.5,26.3z"/>
		<path class="st0" d="M29.59,29.61c0.1-1.67,0.52-3.06,1.25-4.16c0.74-1.1,1.67-1.99,2.81-2.66c1.14-0.67,2.42-1.15,3.84-1.43
			c1.42-0.28,2.85-0.43,4.29-0.43c1.3,0,2.62,0.09,3.96,0.28c1.34,0.18,2.56,0.54,3.66,1.08c1.1,0.54,2.01,1.28,2.71,2.23
			c0.7,0.95,1.05,2.22,1.05,3.79V41.8c0,1.17,0.07,2.29,0.2,3.36c0.13,1.07,0.37,1.87,0.7,2.41h-7.22c-0.13-0.4-0.24-0.81-0.33-1.23
			c-0.08-0.42-0.14-0.84-0.18-1.28c-1.14,1.17-2.47,1.99-4.01,2.46c-1.54,0.47-3.11,0.7-4.71,0.7c-1.24,0-2.39-0.15-3.46-0.45
			c-1.07-0.3-2.01-0.77-2.81-1.4c-0.8-0.63-1.43-1.44-1.88-2.41c-0.45-0.97-0.68-2.12-0.68-3.46c0-1.47,0.26-2.68,0.78-3.64
			c0.52-0.95,1.19-1.71,2.01-2.28c0.82-0.57,1.76-0.99,2.81-1.28c1.05-0.28,2.11-0.51,3.18-0.68c1.07-0.17,2.12-0.3,3.16-0.4
			c1.04-0.1,1.96-0.25,2.76-0.45c0.8-0.2,1.44-0.49,1.91-0.88c0.47-0.38,0.68-0.94,0.65-1.68c0-0.77-0.13-1.38-0.38-1.83
			c-0.25-0.45-0.59-0.8-1-1.05c-0.42-0.25-0.9-0.42-1.45-0.5c-0.55-0.08-1.15-0.13-1.78-0.13c-1.4,0-2.51,0.3-3.31,0.9
			c-0.8,0.6-1.27,1.6-1.4,3.01H29.59z M46.04,34.88c-0.3,0.27-0.68,0.48-1.13,0.63c-0.45,0.15-0.94,0.28-1.45,0.38
			c-0.52,0.1-1.06,0.18-1.63,0.25c-0.57,0.07-1.14,0.15-1.7,0.25c-0.54,0.1-1.06,0.23-1.58,0.4c-0.52,0.17-0.97,0.39-1.35,0.68
			c-0.38,0.28-0.69,0.64-0.93,1.08c-0.23,0.43-0.35,0.99-0.35,1.65c0,0.64,0.12,1.17,0.35,1.6c0.23,0.43,0.55,0.78,0.95,1.03
			c0.4,0.25,0.87,0.43,1.4,0.53c0.53,0.1,1.09,0.15,1.66,0.15c1.4,0,2.49-0.23,3.26-0.7c0.77-0.47,1.34-1.03,1.71-1.68
			c0.37-0.65,0.59-1.31,0.68-1.98c0.08-0.67,0.13-1.2,0.13-1.6V34.88z"/>
		<path class="st0" d="M65.45,21.64v3.61h0.15c0.9-1.5,2.07-2.6,3.51-3.28c1.44-0.69,2.91-1.03,4.41-1.03
			c1.91,0,3.47,0.26,4.69,0.78c1.22,0.52,2.18,1.24,2.88,2.16c0.7,0.92,1.2,2.04,1.48,3.36c0.28,1.32,0.43,2.78,0.43,4.39v15.95
			h-7.12V32.92c0-2.14-0.33-3.74-1-4.79c-0.67-1.05-1.86-1.58-3.56-1.58c-1.94,0-3.34,0.58-4.21,1.73c-0.87,1.15-1.3,3.05-1.3,5.69
			v13.59h-7.12V21.64H65.45z"/>
		<path class="st0" d="M88.12,29.61c0.1-1.67,0.52-3.06,1.25-4.16c0.74-1.1,1.67-1.99,2.81-2.66c1.14-0.67,2.42-1.15,3.84-1.43
			c1.42-0.28,2.85-0.43,4.29-0.43c1.3,0,2.62,0.09,3.96,0.28c1.34,0.18,2.56,0.54,3.66,1.08c1.1,0.54,2.01,1.28,2.71,2.23
			c0.7,0.95,1.05,2.22,1.05,3.79V41.8c0,1.17,0.07,2.29,0.2,3.36c0.13,1.07,0.37,1.87,0.7,2.41h-7.22c-0.13-0.4-0.24-0.81-0.33-1.23
			c-0.08-0.42-0.14-0.84-0.18-1.28c-1.14,1.17-2.47,1.99-4.01,2.46c-1.54,0.47-3.11,0.7-4.71,0.7c-1.24,0-2.39-0.15-3.46-0.45
			c-1.07-0.3-2.01-0.77-2.81-1.4c-0.8-0.63-1.43-1.44-1.88-2.41c-0.45-0.97-0.68-2.12-0.68-3.46c0-1.47,0.26-2.68,0.78-3.64
			c0.52-0.95,1.19-1.71,2.01-2.28c0.82-0.57,1.76-0.99,2.81-1.28c1.05-0.28,2.11-0.51,3.18-0.68c1.07-0.17,2.12-0.3,3.16-0.4
			c1.04-0.1,1.96-0.25,2.76-0.45c0.8-0.2,1.44-0.49,1.91-0.88c0.47-0.38,0.68-0.94,0.65-1.68c0-0.77-0.13-1.38-0.38-1.83
			c-0.25-0.45-0.59-0.8-1-1.05c-0.42-0.25-0.9-0.42-1.45-0.5c-0.55-0.08-1.15-0.13-1.78-0.13c-1.4,0-2.51,0.3-3.31,0.9
			c-0.8,0.6-1.27,1.6-1.4,3.01H88.12z M104.57,34.88c-0.3,0.27-0.68,0.48-1.13,0.63c-0.45,0.15-0.94,0.28-1.45,0.38
			c-0.52,0.1-1.06,0.18-1.63,0.25c-0.57,0.07-1.14,0.15-1.7,0.25c-0.54,0.1-1.06,0.23-1.58,0.4c-0.52,0.17-0.97,0.39-1.35,0.68
			c-0.38,0.28-0.69,0.64-0.93,1.08c-0.23,0.43-0.35,0.99-0.35,1.65c0,0.64,0.12,1.17,0.35,1.6c0.23,0.43,0.55,0.78,0.95,1.03
			c0.4,0.25,0.87,0.43,1.4,0.53c0.53,0.1,1.09,0.15,1.66,0.15c1.4,0,2.49-0.23,3.26-0.7c0.77-0.47,1.34-1.03,1.71-1.68
			c0.37-0.65,0.59-1.31,0.68-1.98c0.08-0.67,0.13-1.2,0.13-1.6V34.88z"/>
		<path class="st0" d="M123.98,21.64v4.82h0.1c0.33-0.8,0.79-1.55,1.35-2.23c0.57-0.68,1.22-1.27,1.96-1.76
			c0.74-0.48,1.52-0.86,2.36-1.13c0.84-0.27,1.7-0.4,2.61-0.4c0.47,0,0.99,0.08,1.55,0.25v6.62c-0.33-0.07-0.74-0.13-1.2-0.18
			c-0.47-0.05-0.92-0.08-1.35-0.08c-1.3,0-2.41,0.22-3.31,0.65c-0.9,0.43-1.63,1.03-2.18,1.78c-0.55,0.75-0.94,1.63-1.18,2.63
			c-0.23,1-0.35,2.09-0.35,3.26v11.69h-7.12V21.64H123.98z"/>
		<path class="st0" d="M148.3,55.29c-1.37,0.9-3.28,1.35-5.72,1.35c-0.74,0-1.46-0.03-2.18-0.08c-0.72-0.05-1.45-0.11-2.18-0.18
			v-5.87c0.67,0.07,1.35,0.13,2.06,0.2c0.7,0.07,1.4,0.08,2.11,0.05c0.94-0.1,1.63-0.47,2.08-1.1c0.45-0.64,0.68-1.34,0.68-2.11
			c0-0.57-0.1-1.1-0.3-1.6l-9.08-24.32h7.57l5.87,17.75h0.1l5.67-17.75h7.37l-10.83,29.14C150.74,52.88,149.67,54.39,148.3,55.29z"
			/>
	</g>
	<g>
		<path class="st0" d="M6.26,55.33v0.97H3.73v1.21h2.19v0.89H3.73v2.16H2.58v-5.24H6.26z"/>
		<path class="st0" d="M12.25,60.16c-0.4,0.35-0.94,0.52-1.64,0.52c-0.71,0-1.26-0.17-1.65-0.51c-0.39-0.34-0.58-0.87-0.58-1.59
			v-3.26h1.15v3.26c0,0.14,0.01,0.28,0.04,0.42c0.02,0.14,0.08,0.26,0.15,0.36c0.08,0.1,0.19,0.19,0.33,0.26
			c0.14,0.07,0.33,0.1,0.56,0.1c0.41,0,0.69-0.09,0.85-0.28c0.16-0.18,0.23-0.47,0.23-0.86v-3.26h1.15v3.26
			C12.84,59.29,12.64,59.82,12.25,60.16z"/>
		<path class="st0" d="M16.45,55.33v4.27H19v0.97H15.3v-5.24H16.45z"/>
		<path class="st0" d="M24.8,55.33v0.97h-2.53v1.21h2.19v0.89h-2.19v2.16h-1.15v-5.24H24.8z"/>
		<path class="st0" d="M28.09,55.33v5.24h-1.15v-5.24H28.09z"/>
		<path class="st0" d="M31.72,55.33v4.27h2.55v0.97h-3.71v-5.24H31.72z"/>
		<path class="st0" d="M37.54,55.33v4.27h2.55v0.97h-3.71v-5.24H37.54z"/>
		<path class="st0" d="M43.82,55.33l1.23,3.6h0.01l1.16-3.6h1.62v5.24h-1.08v-3.71h-0.01l-1.28,3.71h-0.89l-1.28-3.68h-0.01v3.68
			H42.2v-5.24H43.82z"/>
		<path class="st0" d="M54.24,55.33v0.97h-2.77v1.12h2.54v0.89h-2.54v1.28h2.82v0.97h-3.98v-5.24H54.24z"/>
		<path class="st0" d="M57.69,55.33l2.19,3.51h0.01v-3.51h1.08v5.24h-1.15l-2.18-3.51h-0.01v3.51h-1.08v-5.24H57.69z"/>
		<path class="st0" d="M63.04,56.29v-0.97h4.29v0.97h-1.57v4.27h-1.15v-4.27H63.04z"/>
		<path class="st0" d="M74.06,55.33v5.24h-1.15v-5.24H74.06z"/>
		<path class="st0" d="M77.68,55.33l2.19,3.51h0.01v-3.51h1.08v5.24h-1.15l-2.18-3.51h-0.01v3.51h-1.08v-5.24H77.68z"/>
		<path class="st0" d="M90.31,56.72c-0.07-0.11-0.15-0.21-0.26-0.29c-0.1-0.08-0.22-0.15-0.35-0.19c-0.13-0.05-0.27-0.07-0.41-0.07
			c-0.26,0-0.48,0.05-0.66,0.15c-0.18,0.1-0.33,0.23-0.44,0.4c-0.11,0.17-0.19,0.36-0.25,0.58c-0.05,0.21-0.08,0.44-0.08,0.67
			c0,0.22,0.03,0.43,0.08,0.64c0.05,0.21,0.13,0.4,0.25,0.56c0.11,0.17,0.26,0.3,0.44,0.4c0.18,0.1,0.4,0.15,0.66,0.15
			c0.35,0,0.63-0.11,0.83-0.32s0.32-0.5,0.36-0.85h1.11c-0.03,0.33-0.11,0.62-0.23,0.89c-0.12,0.26-0.28,0.49-0.48,0.68
			c-0.2,0.19-0.44,0.33-0.7,0.43c-0.27,0.1-0.56,0.15-0.89,0.15c-0.4,0-0.76-0.07-1.08-0.21c-0.32-0.14-0.59-0.33-0.81-0.58
			c-0.22-0.24-0.39-0.53-0.51-0.86c-0.12-0.33-0.18-0.69-0.18-1.07c0-0.39,0.06-0.75,0.18-1.09c0.12-0.33,0.29-0.63,0.51-0.88
			c0.22-0.25,0.49-0.44,0.81-0.59c0.32-0.14,0.68-0.21,1.08-0.21c0.29,0,0.56,0.04,0.82,0.13c0.26,0.08,0.49,0.2,0.69,0.36
			s0.37,0.36,0.5,0.59c0.13,0.24,0.22,0.5,0.25,0.81h-1.11C90.42,56.95,90.38,56.83,90.31,56.72z"/>
		<path class="st0" d="M93.8,56.88c0.12-0.33,0.29-0.63,0.51-0.88c0.22-0.25,0.49-0.44,0.81-0.59c0.32-0.14,0.68-0.21,1.08-0.21
			c0.41,0,0.77,0.07,1.09,0.21c0.32,0.14,0.59,0.34,0.81,0.59c0.22,0.25,0.39,0.54,0.51,0.88c0.12,0.33,0.18,0.7,0.18,1.09
			c0,0.38-0.06,0.74-0.18,1.07c-0.12,0.33-0.29,0.62-0.51,0.86c-0.22,0.24-0.49,0.44-0.81,0.58c-0.32,0.14-0.68,0.21-1.09,0.21
			c-0.4,0-0.76-0.07-1.08-0.21c-0.32-0.14-0.59-0.33-0.81-0.58c-0.22-0.24-0.39-0.53-0.51-0.86c-0.12-0.33-0.18-0.69-0.18-1.07
			C93.62,57.58,93.68,57.21,93.8,56.88z M94.85,58.61c0.05,0.21,0.13,0.4,0.25,0.56c0.11,0.17,0.26,0.3,0.44,0.4
			c0.18,0.1,0.4,0.15,0.66,0.15c0.26,0,0.48-0.05,0.66-0.15c0.18-0.1,0.33-0.23,0.44-0.4c0.11-0.17,0.19-0.35,0.25-0.56
			c0.05-0.21,0.08-0.42,0.08-0.64c0-0.23-0.03-0.45-0.08-0.67c-0.05-0.22-0.13-0.41-0.25-0.58c-0.11-0.17-0.26-0.3-0.44-0.4
			c-0.18-0.1-0.4-0.15-0.66-0.15c-0.26,0-0.48,0.05-0.66,0.15c-0.18,0.1-0.33,0.23-0.44,0.4c-0.11,0.17-0.19,0.36-0.25,0.58
			c-0.05,0.21-0.08,0.44-0.08,0.67C94.78,58.19,94.8,58.4,94.85,58.61z"/>
		<path class="st0" d="M102.17,55.33l2.19,3.51h0.01v-3.51h1.08v5.24h-1.15l-2.18-3.51h-0.01v3.51h-1.08v-5.24H102.17z"/>
		<path class="st0" d="M107.52,56.29v-0.97h4.29v0.97h-1.57v4.27h-1.15v-4.27H107.52z"/>
		<path class="st0" d="M116.71,55.33c0.23,0,0.45,0.04,0.63,0.11c0.19,0.08,0.35,0.18,0.48,0.31c0.13,0.13,0.24,0.28,0.31,0.46
			c0.07,0.17,0.11,0.36,0.11,0.56c0,0.31-0.06,0.58-0.19,0.8c-0.13,0.23-0.34,0.4-0.63,0.51v0.01c0.14,0.04,0.26,0.1,0.35,0.18
			c0.09,0.08,0.17,0.18,0.23,0.29c0.06,0.11,0.1,0.23,0.13,0.36c0.03,0.13,0.05,0.26,0.05,0.4c0.01,0.08,0.01,0.18,0.01,0.29
			c0,0.11,0.01,0.23,0.03,0.35c0.01,0.12,0.03,0.23,0.06,0.33c0.03,0.11,0.07,0.19,0.12,0.27h-1.15c-0.06-0.17-0.1-0.36-0.12-0.59
			c-0.01-0.23-0.04-0.45-0.07-0.66c-0.04-0.27-0.12-0.47-0.25-0.6c-0.13-0.13-0.33-0.19-0.62-0.19h-1.15v2.05h-1.15v-5.24H116.71z
			 M116.3,57.7c0.26,0,0.46-0.06,0.59-0.18c0.13-0.12,0.2-0.31,0.2-0.57c0-0.25-0.07-0.44-0.2-0.55c-0.13-0.11-0.33-0.17-0.59-0.17
			h-1.26v1.47H116.3z"/>
		<path class="st0" d="M120.59,56.88c0.12-0.33,0.29-0.63,0.51-0.88c0.22-0.25,0.49-0.44,0.81-0.59c0.32-0.14,0.68-0.21,1.08-0.21
			c0.41,0,0.77,0.07,1.09,0.21c0.32,0.14,0.59,0.34,0.81,0.59c0.22,0.25,0.39,0.54,0.51,0.88c0.12,0.33,0.18,0.7,0.18,1.09
			c0,0.38-0.06,0.74-0.18,1.07c-0.12,0.33-0.29,0.62-0.51,0.86c-0.22,0.24-0.49,0.44-0.81,0.58c-0.32,0.14-0.68,0.21-1.09,0.21
			c-0.4,0-0.76-0.07-1.08-0.21c-0.32-0.14-0.59-0.33-0.81-0.58c-0.22-0.24-0.39-0.53-0.51-0.86c-0.12-0.33-0.18-0.69-0.18-1.07
			C120.42,57.58,120.48,57.21,120.59,56.88z M121.65,58.61c0.05,0.21,0.13,0.4,0.25,0.56c0.11,0.17,0.26,0.3,0.44,0.4
			c0.18,0.1,0.4,0.15,0.66,0.15c0.26,0,0.48-0.05,0.66-0.15c0.18-0.1,0.33-0.23,0.44-0.4c0.11-0.17,0.19-0.35,0.25-0.56
			c0.05-0.21,0.08-0.42,0.08-0.64c0-0.23-0.03-0.45-0.08-0.67c-0.05-0.22-0.13-0.41-0.25-0.58c-0.11-0.17-0.26-0.3-0.44-0.4
			c-0.18-0.1-0.4-0.15-0.66-0.15c-0.26,0-0.48,0.05-0.66,0.15c-0.18,0.1-0.33,0.23-0.44,0.4c-0.11,0.17-0.19,0.36-0.25,0.58
			c-0.05,0.21-0.08,0.44-0.08,0.67C121.57,58.19,121.6,58.4,121.65,58.61z"/>
		<path class="st0" d="M128.97,55.33v4.27h2.55v0.97h-3.71v-5.24H128.97z"/>
	</g>
	<path class="st1" d="M212.96,0.42h-57.31l1.53,4.09c3.41,9.13,12.13,15.19,21.88,15.19h5.46C190.98,10.11,201,3.02,212.96,0.42z"/>
	<path class="st2" d="M176.63,45.48v18.44l2.24-0.39c9.84-1.71,17.03-10.26,17.03-20.25v-1.23c0-10.44,6.98-19.59,17.05-22.35
		h-28.45C179.51,27.11,176.63,36.02,176.63,45.48z"/>
	<polygon class="st3" points="212.96,-5.11 212.96,-5.11 212.96,-5.11 212.96,-5.11 	"/>
	<path class="st4" d="M184.51,19.7h28.45V0.42h0C201,3.02,190.98,10.11,184.51,19.7z"/>
</g>
</svg>
