<svg width="100" height="100" viewBox="0 0 100 100" fill="none" xmlns="http://www.w3.org/2000/svg">
<g clip-path="url(#clip0_2_77)">
<path d="M49.9459 24.8256C49.2191 25.1662 47.2659 26.9377 43.3141 30.9123L37.7043 36.4993L35.4559 34.2963C32.0264 30.935 33.1393 30.3899 23.2371 40.3149L15.0382 48.5592L13.9707 50.7168C13.3802 51.8978 12.767 53.5784 12.5853 54.4642C11.6769 58.8475 12.6989 63.5034 15.3789 67.0464L16.31 68.2955L15.4016 69.2721C14.9019 69.8172 14.2887 70.7029 14.0389 71.2253C13.244 72.9741 13.5619 75.8812 14.6748 77.1303C15.0382 77.5164 14.6975 77.9025 7.77049 84.8522C3.77325 88.8722 0.366516 92.3925 0.230247 92.665C-0.314831 93.7325 -0.0877152 94.0958 3.0919 97.2982C6.29423 100.546 6.95287 100.955 7.97489 100.455C8.27014 100.296 11.7904 96.9121 15.7877 92.9148L23.0781 85.6471L24.032 86.2603C24.7814 86.76 25.3265 86.919 26.6438 87.0098C28.6197 87.1234 29.7326 86.7146 31.3451 85.2838L32.3898 84.3526L33.6162 85.2838C39.0897 89.4173 46.4029 89.4627 52.0808 85.3746C52.8529 84.8068 56.8729 80.9458 61.0291 76.7896C70.1819 67.6142 69.7049 68.6135 66.3663 65.2067L64.1633 62.981L69.8639 57.235C76.2231 50.853 76.4276 50.5351 76.2459 48.0141C76.0642 45.4931 74.27 43.4945 71.749 42.9494C70.7042 42.745 70.2727 42.7677 69.1371 43.0857C67.8199 43.4718 67.6155 43.6535 61.983 49.2632L56.1915 55.0319L50.8997 49.7629L45.6307 44.4711L51.3994 38.6796C57.0092 33.0471 57.1909 32.8428 57.577 31.5255C58.599 27.9825 56.2143 24.6666 52.5123 24.4395C51.2858 24.3713 50.7635 24.4622 49.9459 24.8256ZM53.1255 28.4594C53.6706 28.7547 54.0794 29.9357 53.8068 30.5716C53.716 30.8441 51.195 33.4787 48.2652 36.4085L42.9053 41.7457L41.6561 40.4965L40.407 39.2474L45.9259 33.7285C51.6947 27.9825 51.9218 27.8235 53.1255 28.4594ZM57.0546 75.268C49.8323 82.4221 48.992 83.1034 46.312 84.0119C43.6093 84.9204 39.4531 84.4207 36.8867 82.8536C35.4559 81.9906 18.4449 64.8888 17.6727 63.5488C16.6734 61.8 16.2419 60.1648 16.2419 57.8709C16.2192 55.5543 16.5372 54.1689 17.5365 52.193C18.1042 51.1028 19.6032 49.4676 25.2811 43.7216L32.3217 36.6356L48.1971 52.4655L64.0498 68.3182L57.0546 75.268ZM71.3175 46.8558C71.7944 46.8558 72.4303 47.8097 72.4303 48.491C72.4303 49.1497 71.8171 49.831 66.9341 54.7367L61.4152 60.2556L60.1661 59.0065L58.9169 57.7573L64.2542 52.3974C67.1839 49.4449 69.7958 46.9693 70.0456 46.8558C70.2954 46.7422 70.6361 46.6968 70.7951 46.7649C70.9768 46.8104 71.2039 46.8558 71.3175 46.8558ZM24.3954 76.4035L29.619 81.6272L28.7333 82.4221C28.0746 82.9899 27.6204 83.1943 27.0299 83.1943C26.2804 83.1943 25.8943 82.8536 21.8517 78.811C17.8317 74.791 17.4683 74.3822 17.4683 73.6327C17.4683 73.0876 17.6727 72.588 18.1724 71.9975C18.5585 71.5433 18.9446 71.1572 19.0127 71.1572C19.1036 71.1572 21.5337 73.5192 24.3954 76.4035ZM19.0581 81.718L20.3073 82.9672L13.7663 89.5081L7.24812 96.0263L5.95356 94.7091L4.63629 93.4145L11.1091 86.9417C14.6748 83.376 17.6273 80.4689 17.6954 80.4689C17.7636 80.4689 18.3768 81.0367 19.0581 81.718Z" fill="#2EA8D6"/>
<path d="M31.7767 42.6996C31.2316 42.8813 20.1711 53.9645 19.944 54.5096C19.8304 54.8275 19.8304 55.2818 19.9894 55.6452C20.2846 56.4401 43.9274 80.1737 44.7904 80.5598C45.1538 80.7187 45.6762 80.8096 45.9487 80.7642C46.244 80.696 48.9694 78.1523 52.2171 74.9046C57.6225 69.4992 57.9858 69.0904 57.9858 68.3182C57.9858 67.546 57.3726 66.8874 45.6308 55.1455C37.5909 47.1283 33.0485 42.745 32.6852 42.6769C32.3672 42.6087 31.9584 42.6314 31.7767 42.6996ZM49.4463 72.2246L45.5172 76.1537L35.0245 65.661L24.509 55.1455L28.4154 51.2391L32.3445 47.31L42.8372 57.8028L53.3527 68.3182L49.4463 72.2246Z" fill="#2EA8D6"/>
<path d="M34.5019 55.8723C33.7069 56.1675 33.1392 56.9397 33.1392 57.7346C33.1392 58.5068 33.4571 58.8702 37.6361 63.0491C41.7696 67.1826 42.1784 67.5233 42.9278 67.5233C44.018 67.5233 44.7221 66.7738 44.7221 65.5928C44.7221 64.7525 44.5177 64.5027 40.5886 60.5282C37.1591 57.076 35.4103 55.5997 34.9107 55.736C34.8652 55.736 34.6835 55.8041 34.5019 55.8723Z" fill="#2EA8D6"/>
<path d="M91.941 0.248924C91.6911 0.385201 88.1936 3.79193 84.1736 7.78917C77.2239 14.7162 76.8378 15.0569 76.4517 14.6935C75.2025 13.5806 72.409 13.2399 70.6602 14.0348C70.1152 14.262 69.2067 14.8979 68.6389 15.3975L67.6169 16.306L66.5949 15.5111C65.1867 14.3755 62.257 13.0128 60.3719 12.604C56.3747 11.7637 52.173 12.5132 48.6754 14.7162C47.0856 15.7155 34.6624 28.0025 34.2309 29.0245C33.9356 29.6831 33.9356 29.8648 34.2536 30.5007C34.7078 31.4546 68.8206 65.5447 69.6382 65.8399C70.047 65.9989 70.4558 65.9989 70.8874 65.8399C71.5914 65.5674 82.9699 54.3479 84.4689 52.4174C88.7386 46.9439 88.8068 39.222 84.6506 33.6576L83.6967 32.3858L84.6051 31.3411C85.8997 29.8875 86.3766 28.7747 86.3766 27.0713C86.3766 25.6177 85.9678 24.3005 85.3092 23.551C84.9458 23.1649 85.3092 22.7788 92.3271 15.7155C99.6402 8.40238 100.231 7.67561 99.9127 6.65359C99.8446 6.40376 98.3683 4.81395 96.6423 3.11058C93.3945 -0.0917435 93.0084 -0.318863 91.941 0.248924ZM94.0986 6.01767L95.3477 7.2668L88.8068 13.8077L82.2886 20.326L80.994 19.0087L79.6767 17.7141L86.1495 11.2413C89.7152 7.67561 92.6677 4.76853 92.7359 4.76853C92.804 4.76853 93.4172 5.33632 94.0986 6.01767ZM60.7353 16.7602C61.4393 16.9874 62.5068 17.4643 63.12 17.8277C64.7779 18.7816 81.3574 35.4064 82.2658 37.0189C83.356 38.9721 83.7421 40.4938 83.7421 42.924C83.7421 45.3541 83.356 46.8985 82.2658 48.829C81.7889 49.6693 79.6767 51.9632 75.952 55.7106L70.365 61.3203L54.5123 45.4904L38.6596 29.6377L44.4057 23.9598C50.5378 17.8958 51.469 17.169 54.2625 16.465C55.9659 16.0335 59.0092 16.1697 60.7353 16.7602ZM78.1323 21.8476C82.1977 25.913 82.5157 26.2764 82.5157 27.0486C82.5157 27.6391 82.3113 28.0933 81.7435 28.7519L80.9486 29.6377L75.6568 24.3459L70.365 19.0541L71.2507 18.2592C71.9094 17.6914 72.3636 17.487 72.9541 17.487C73.7036 17.487 74.0897 17.805 78.1323 21.8476Z" fill="#2EA8D6"/>
</g>
<defs>
<clipPath id="clip0_2_77">
<rect width="100" height="100" fill="white"/>
</clipPath>
</defs>
</svg>
