<svg width="100" height="100" viewBox="0 0 100 100" fill="none" xmlns="http://www.w3.org/2000/svg">
<g clip-path="url(#clip0_2_26)">
<path d="M93.0665 0.214848C92.8516 0.332035 89.8438 3.26172 86.3868 6.69922C80.4102 12.6563 80.0782 12.9492 79.7462 12.6367C78.6719 11.6797 76.2696 11.3867 74.7657 12.0703C74.2969 12.2656 73.5157 12.8125 73.0274 13.2422L72.1485 14.0234L71.2696 13.3398C70.0587 12.3633 67.5391 11.1914 65.918 10.8398C62.4805 10.1172 58.8673 10.7617 55.8594 12.6563C54.4923 13.5156 43.8087 24.082 43.4376 24.9609C43.1837 25.5273 43.1837 25.6836 43.4571 26.2305C43.8477 27.0508 73.1837 56.3672 73.8868 56.6211C74.2383 56.7578 74.5899 56.7578 74.961 56.6211C75.5665 56.3867 85.3516 46.7383 86.6407 45.0781C90.3126 40.3711 90.3712 33.7305 86.7969 28.9453L85.9766 27.8516L86.7579 26.9531C87.8712 25.7031 88.2813 24.7461 88.2813 23.2813C88.2813 22.0313 87.9298 20.8984 87.3633 20.2539C87.0508 19.9219 87.3633 19.5898 93.3985 13.5156C99.6876 7.22657 100.195 6.60157 99.9219 5.72266C99.8633 5.50782 98.5938 4.14063 97.1094 2.67579C94.3165 -0.0781212 93.9844 -0.273434 93.0665 0.214848ZM94.9219 5.17579L95.9962 6.25L90.3712 11.875L84.7657 17.4805L83.6524 16.3477L82.5196 15.2344L88.086 9.66797C91.1524 6.60157 93.6915 4.10157 93.7501 4.10157C93.8087 4.10157 94.336 4.58985 94.9219 5.17579ZM66.2305 14.4141C66.836 14.6094 67.754 15.0195 68.2813 15.332C69.7071 16.1523 83.9649 30.4492 84.7462 31.8359C85.6837 33.5156 86.0157 34.8242 86.0157 36.9141C86.0157 39.0039 85.6837 40.332 84.7462 41.9922C84.336 42.7148 82.5196 44.6875 79.3165 47.9102L74.5118 52.7344L60.879 39.1211L47.2462 25.4883L52.1876 20.6055C57.461 15.3906 58.2618 14.7656 60.6641 14.1602C62.129 13.7891 64.7462 13.9063 66.2305 14.4141ZM81.1915 18.7891C84.6876 22.2852 84.961 22.5977 84.961 23.2617C84.961 23.7695 84.7852 24.1602 84.2969 24.7266L83.6133 25.4883L79.0626 20.9375L74.5118 16.3867L75.2735 15.7031C75.8399 15.2148 76.2305 15.0391 76.7383 15.0391C77.3829 15.0391 77.7149 15.3125 81.1915 18.7891Z" fill="#374767"/>
<path d="M61.2305 17.0508C59.8633 17.5 59.5312 17.7734 56.5039 20.7617C53.9062 23.3398 53.5156 23.7891 53.5156 24.3359C53.5156 25.293 54.1602 25.9766 55.1172 25.9766C55.8594 25.9766 56.0352 25.8398 58.7695 23.1641C61.8555 20.1367 62.2266 19.9219 63.8086 20.2148C64.4141 20.332 65.0586 20.8594 67.4023 23.1641C70.0391 25.7617 70.3125 25.9766 70.9766 25.9766C71.9141 25.9766 72.6562 25.2734 72.6562 24.3945C72.6562 23.8477 72.2852 23.3984 69.7852 20.8594C66.4258 17.4609 65.625 16.9727 63.418 16.875C62.5977 16.8359 61.6797 16.9141 61.2305 17.0508Z" fill="#374767"/>
<path d="M42.9688 34.7656C42.3438 35.0586 40.6641 36.582 37.2656 40L32.4414 44.8047L30.5078 42.9102C27.5586 40.0195 28.5156 39.5508 20 48.0859L12.9492 55.1758L12.0313 57.0312C11.5234 58.0469 10.9961 59.4922 10.8399 60.2539C10.0586 64.0234 10.9375 68.0273 13.2422 71.0742L14.043 72.1484L13.2617 72.9883C12.832 73.457 12.3047 74.2187 12.0899 74.668C11.4063 76.1719 11.6797 78.6719 12.6367 79.7461C12.9492 80.0781 12.6563 80.4102 6.69923 86.3867C3.26173 89.8437 0.332038 92.8711 0.214851 93.1055C-0.253899 94.0234 -0.0585867 94.3359 2.67579 97.0898C5.42969 99.8828 5.9961 100.234 6.87501 99.8047C7.12891 99.668 10.1563 96.7578 13.5938 93.3203L19.8633 87.0703L20.6836 87.5977C21.3281 88.0273 21.7969 88.1641 22.9297 88.2422C24.6289 88.3398 25.5859 87.9883 26.9727 86.7578L27.8711 85.957L28.9258 86.7578C33.6328 90.3125 39.9219 90.3516 44.8047 86.8359C45.4688 86.3477 48.9258 83.0273 52.5 79.4531C60.3711 71.5625 59.9609 72.4219 57.0899 69.4922L55.1953 67.5781L60.0977 62.6367C65.5664 57.1484 65.7422 56.875 65.5859 54.707C65.4297 52.5391 63.8867 50.8203 61.7188 50.3516C60.8203 50.1758 60.4492 50.1953 59.4727 50.4688C58.3399 50.8008 58.1641 50.957 53.3203 55.7812L48.3399 60.7422L43.7891 56.2109L39.2578 51.6602L44.2188 46.6797C49.043 41.8359 49.1992 41.6602 49.5313 40.5273C50.4102 37.4805 48.3594 34.6289 45.1758 34.4336C44.1211 34.375 43.6719 34.4531 42.9688 34.7656ZM45.7031 37.8906C46.1719 38.1445 46.5234 39.1602 46.2891 39.707C46.2109 39.9414 44.043 42.207 41.5234 44.7266L36.9141 49.3164L35.8399 48.2422L34.7656 47.168L39.5117 42.4219C44.4727 37.4805 44.668 37.3438 45.7031 37.8906ZM49.082 78.1445C42.8711 84.2969 42.1484 84.8828 39.8438 85.6641C37.5195 86.4453 33.9453 86.0156 31.7383 84.668C30.5078 83.9258 15.8789 69.2187 15.2149 68.0664C14.3555 66.5625 13.9844 65.1562 13.9844 63.1836C13.9649 61.1914 14.2383 60 15.0977 58.3008C15.5859 57.3633 16.875 55.957 21.7578 51.0156L27.8125 44.9219L41.4649 58.5352L55.0977 72.168L49.082 78.1445ZM61.3477 53.7109C61.7578 53.7109 62.3047 54.5312 62.3047 55.1172C62.3047 55.6836 61.7774 56.2695 57.5781 60.4883L52.832 65.2344L51.7578 64.1602L50.6836 63.0859L55.2734 58.4766C57.793 55.9375 60.0391 53.8086 60.2539 53.7109C60.4688 53.6133 60.7617 53.5742 60.8984 53.6328C61.0547 53.6719 61.25 53.7109 61.3477 53.7109ZM20.9961 79.1211L25.4883 83.6133L24.7266 84.2969C24.1602 84.7852 23.7695 84.9609 23.2617 84.9609C22.6172 84.9609 22.2852 84.668 18.8086 81.1914C15.3516 77.7344 15.0391 77.3828 15.0391 76.7383C15.0391 76.2695 15.2149 75.8398 15.6445 75.332C15.9766 74.9414 16.3086 74.6094 16.3672 74.6094C16.4453 74.6094 18.5352 76.6406 20.9961 79.1211ZM16.4063 83.6914L17.4805 84.7656L11.8555 90.3906L6.25001 95.9961L5.13673 94.8633L4.00391 93.75L9.57032 88.1836C12.6367 85.1172 15.1758 82.6172 15.2344 82.6172C15.293 82.6172 15.8203 83.1055 16.4063 83.6914Z" fill="#374767"/>
<path d="M27.3439 50.1367C26.8751 50.293 17.3634 59.8242 17.1681 60.293C17.0704 60.5664 17.0704 60.957 17.2072 61.2695C17.4611 61.9531 37.7931 82.3633 38.5353 82.6953C38.8478 82.832 39.297 82.9102 39.5314 82.8711C39.7853 82.8125 42.129 80.625 44.922 77.832C49.5704 73.1836 49.8829 72.832 49.8829 72.168C49.8829 71.5039 49.3556 70.9375 39.2579 60.8398C32.3439 53.9453 28.4376 50.1758 28.1251 50.1172C27.8517 50.0586 27.5001 50.0781 27.3439 50.1367ZM42.5392 75.5273L39.1603 78.9063L30.1368 69.8828L21.0939 60.8398L24.4532 57.4805L27.8322 54.1016L36.8556 63.125L45.8986 72.168L42.5392 75.5273Z" fill="#374767"/>
<path d="M29.6875 61.4648C29.0039 61.7188 28.5156 62.3828 28.5156 63.0664C28.5156 63.7305 28.7891 64.043 32.3828 67.6367C35.9375 71.1914 36.2891 71.4844 36.9336 71.4844C37.8711 71.4844 38.4766 70.8398 38.4766 69.8242C38.4766 69.1016 38.3008 68.8867 34.9219 65.4688C31.9727 62.5 30.4688 61.2305 30.0391 61.3477C30 61.3477 29.8438 61.4062 29.6875 61.4648Z" fill="#374767"/>
</g>
<defs>
<clipPath id="clip0_2_26">
<rect width="100" height="100" fill="white"/>
</clipPath>
</defs>
</svg>
