<svg xmlns="http://www.w3.org/2000/svg" width="33" height="33" viewBox="0 0 33 33">
  <g id="Group_11" data-name="Group 11" transform="translate(-405 -482)">
    <path id="revolt-p2WUEFGrAdA-unsplash" d="M16.5,0A16.5,16.5,0,1,1,0,16.5,16.5,16.5,0,0,1,16.5,0Z" transform="translate(405 482)" fill="#dcdcdc"/>
    <g id="Group_4" data-name="Group 4" transform="translate(-529.318 751.338)">
      <path id="Path_4" data-name="Path 4" d="M943.074-248.269v-6.987a.353.353,0,0,0,.027-.068,1.809,1.809,0,0,1,1.71-1.54c.528-.027,1.058-.014,1.587-.011a.239.239,0,0,0,.23-.126c.248-.386.505-.765.757-1.148a1.863,1.863,0,0,1,1.641-.883q1.792-.007,3.583,0a1.863,1.863,0,0,1,1.641.882c.252.383.509.762.757,1.148a.238.238,0,0,0,.23.127c.469-.006.937-.006,1.406,0a1.837,1.837,0,0,1,1.87,1.449,2.173,2.173,0,0,1,.047.479q0,3.19,0,6.38a1.878,1.878,0,0,1-.166.837,1.83,1.83,0,0,1-1.769,1.092q-5.806,0-11.612,0c-.06,0-.121,0-.181,0a1.846,1.846,0,0,1-1.682-1.321C943.123-248.065,943.1-248.168,943.074-248.269Zm7.737-8.222a4.171,4.171,0,0,0-4.168,4.178,4.186,4.186,0,0,0,4.179,4.158,4.183,4.183,0,0,0,4.17-4.18A4.185,4.185,0,0,0,950.811-256.49Zm5.3,2.234a3.987,3.987,0,0,0,.458-.031.518.518,0,0,0,.414-.538.531.531,0,0,0-.471-.524,6.975,6.975,0,0,0-.814,0,.529.529,0,0,0-.484.512.531.531,0,0,0,.438.551A4.134,4.134,0,0,0,956.107-254.257Z" transform="translate(0 0)" fill="#a9a9a9"/>
      <path id="Path_5" data-name="Path 5" d="M1077-152.208a2.322,2.322,0,0,1,2.331,2.291,2.332,2.332,0,0,1-2.319,2.336,2.318,2.318,0,0,1-2.331-2.289A2.336,2.336,0,0,1,1077-152.208Z" transform="translate(-126.189 -102.43)" fill="#a9a9a9"/>
    </g>
  </g>
</svg>